# xmcd
#
# Track frame offsets:
#	150
#	13670
#	25397
#	38437
#	52800
#	67335
#	83315
#	98315
#	111692
#	124855
#	141052
#	154732
#	167527
#	184175
#	200282
#	217240
#	230622
#	240352
#
# Disc length: 3385 seconds
#
# Revision: 0
# Processed by: cddbd v1.5.2PL0 Copyright (c) Steve Scherf et al.
# Submitted via: EasyCDDAExtractor 7.1.2.1
#
DISCID=ea0d3712
DTITLE=Various Artist - TM Century - Gold Disc 1011
DYEAR=1900
DGENRE=Country
TTITLE0=Glen Campbell - Southern Nights
TTITLE1=Dave and Sugar - I'm Knee Deep In Loving You
TTITLE2=Johnny Duncan - She Can Out Her Shoes Under My Bed (Anytime)
TTITLE3=Nitty Gritty Dirt Band - High Horse
TTITLE4=Olivia Newton-John - If You Love Me (Let Me Know)
TTITLE5=Sharley Pride - Roll On Mississippi
TTITLE6=Sawyer Brown - Betty's Bein' Bad
TTITLE7=Mickey Gilley - You've Really Got A Hold On Me
TTITLE8=Ray Stevens - Misty
TTITLE9=Reba McEntire - Somebody Should Leave
TTITLE10=Merle Haggard - Big City
TTITLE11=Statler Brothers - I'll Go To My Grave Loving You
TTITLE12=Gordon Lightfoot - Carefree Highway
TTITLE13=Steve Wariner - Kansas City Lights
TTITLE14=Mary MacGregor - Town Between Two Lovers
TTITLE15=Don Williams - Love Me Over Again
TTITLE16=Jow Stampley - I'm Gonna Love You Back To Lovin' Me Again
TTITLE17=Gale Garnett - We'll Sing In The Sunshine
EXTD=
EXTT0=
EXTT1=
EXTT2=
EXTT3=
EXTT4=
EXTT5=
EXTT6=
EXTT7=
EXTT8=
EXTT9=
EXTT10=
EXTT11=
EXTT12=
EXTT13=
EXTT14=
EXTT15=
EXTT16=
EXTT17=
PLAYORDER=
